<svg width="164" height="68" viewBox="0 0 164 68" fill="none" xmlns="http://www.w3.org/2000/svg">
<g filter="url(#filter0_d_523_1857)">
<path d="M109.68 18.192C110.328 17.5492 110.914 16.9367 111.729 16.5029C111.464 16.7742 110.084 18.2231 109.879 18.3559L109.68 18.192Z" fill="#6E1D0B"/>
<path d="M77.7908 11.0068C80.0353 10.8898 82.0579 12.1692 84.3025 11.4268C84.6582 11.3091 84.8615 11.1578 85.2449 11.1094C85.5492 11.773 84.606 13.2683 84.7615 14.0928C84.9114 15.015 85.5728 15.8716 85.8094 16.7588C85.9857 17.4186 85.9315 18.1113 86.1766 18.793C86.9931 19.456 88.7318 17.136 89.785 17.5479C93.0493 18.8263 87.4624 22.1995 86.6277 22.7676C89.9512 22.8585 91.0992 22.1541 93.5994 20.0205C94.7144 19.0569 95.8363 18.1023 96.9666 17.1563C98.3231 16.029 100.511 14.3738 102.238 15.2734C104.631 16.5204 102.823 18.3947 101.808 19.5771C100.557 21.0363 99.1347 22.5471 98.3602 24.1699C100.652 23.4993 102.841 20.1753 104.74 18.6426C106.955 16.8551 111.277 12.7408 114.408 14.1924C118.049 15.8808 110.846 19.9278 111.421 21.5068C111.797 21.7533 112.48 21.6163 112.823 21.3887C115.433 19.6586 117.321 16.8495 119.973 15.1143C121.505 14.0567 123.163 13.5142 124.994 13.332C126.022 13.2297 127.956 13.3248 127.879 14.7588C127.744 17.2896 123.61 19.2374 122.052 20.9697L122.137 21.1191C123.209 21.4554 124.944 20.4673 126.116 20.1025C126.893 19.8613 127.697 19.7111 128.509 19.6553C130.328 19.5411 132.288 19.9131 133.683 21.1592C133.936 21.3846 134.121 21.5446 134.138 21.8936C133.982 22.3975 133.161 22.7006 132.695 22.8916C131.203 23.5042 129.68 23.9028 128.335 24.8252C128.699 24.9856 130.102 25.411 131.198 25.458C133.666 25.5636 141.629 28.5391 139.932 32.042C139.02 33.9254 133.247 32.6524 131.694 32.0566C131.195 31.8653 129.076 30.9172 128.441 31.0225C128.397 31.7941 131.055 33.4512 129.937 34.1367C127.885 35.3946 124.477 32.2408 123.007 31.0703C122.256 30.472 120.473 28.2687 119.63 28.9727C118.983 30.2782 123.084 33.8145 123.343 35.5371C123.392 35.8716 123.339 36.195 123.128 36.4678C122.825 36.8573 122.331 37.0291 121.856 37.0762C118.583 37.4007 114.88 33.8109 112.897 31.624C112.297 30.9621 111.844 30.0733 111.138 29.5234C110.834 29.2875 110.46 29.1264 110.069 29.1846C109.793 29.2258 109.478 29.3674 109.32 29.6055C108.19 31.3107 116.099 35.4986 116.451 37.9736C116.496 38.2928 116.428 38.5979 116.228 38.8564C115.813 39.3938 114.988 39.6456 114.342 39.7119C110.203 40.1364 105.001 36.2875 102.192 33.5967C100.791 32.2547 99.544 30.6781 98.033 29.4629C97.5684 29.0889 96.8118 28.5194 96.1756 28.6445C95.9478 28.6893 95.8702 28.752 95.7615 28.9443C95.7405 30.2889 101.172 33.696 98.2332 34.8633C96.3655 35.6002 92.7815 33.076 91.7147 31.7686C89.3423 28.8612 88.3765 27.6696 84.6736 26.6211C82.6284 26.0421 82.5105 25.2929 80.0897 26.1201C78.5807 26.7312 76.7089 27.2434 75.3221 28.042C73.9607 28.8658 73.2044 30.2544 72.1141 31.3584C70.4753 33.0177 68.0043 35.2312 65.494 34.9619C65.1915 34.9295 64.637 34.6472 64.5408 34.3779C63.8139 32.3415 67.3072 30.6797 67.699 29.1191C67.6411 28.8049 67.7051 28.9186 67.4363 28.6982C66.8471 28.5269 66.116 28.8996 65.6727 29.2529C64.6129 30.0976 63.4731 31.2945 62.5311 32.2852C60.3576 34.5707 57.9015 36.6119 55.1111 38.1143C53.3264 39.0753 50.4605 40.1829 48.409 39.5703C47.9636 39.4373 47.1833 38.9543 47.0877 38.5957C46.342 35.7924 53.2356 32.8234 54.1609 30.3965C54.2433 30.1801 54.2467 29.8781 54.1326 29.7021C53.9587 29.4341 53.7251 29.2715 53.4256 29.1982C53.0021 29.0949 52.6808 29.2939 52.3592 29.5615C51.6098 30.1855 51.0696 31.034 50.3885 31.7627C48.9703 33.2798 47.4943 34.5896 45.7615 35.7559C44.3053 36.7361 42.7261 37.28 40.949 36.9883C40.6618 36.9284 40.3337 36.7779 40.1981 36.5117C39.1517 34.4578 44.6884 30.4936 43.8123 28.8604C42.4762 28.3052 37.8436 34.436 34.6024 34.4521C34.1876 34.4541 33.6999 34.3031 33.4168 33.9834C32.6083 33.0702 34.8576 32.0358 34.865 31.1006C34.5643 30.9728 30.7962 32.3237 30.1121 32.5254C28.7668 32.9218 24.4525 33.6774 23.5047 32.3057C21.4375 29.3108 28.071 26.2571 30.2361 25.8486C31.3936 25.6122 34.3403 25.279 34.782 24.8516C34.3071 24.032 30.7618 23.17 29.7518 22.5244C29.5048 22.3665 29.2765 22.1788 29.2205 21.876C29.1983 21.7548 29.2877 21.5979 29.3563 21.5039C29.8819 20.7833 30.7164 20.3696 31.5457 20.1006C35.9667 18.6666 39.6057 21.5879 40.9334 21.292C41.1051 21.2537 41.1179 21.2078 41.2098 21.0615C41.1694 20.8216 41.1072 20.7384 40.9275 20.5684C40.4804 20.1457 39.8973 19.7988 39.3973 19.4404C38.2415 18.6122 36.9481 17.6328 36.0604 16.5088C35.6377 15.9737 35.3483 15.4272 35.4383 14.7295C35.4889 14.3364 35.6624 13.9954 35.9832 13.7559C36.6001 13.2952 37.6199 13.3265 38.3592 13.3828C44.9424 13.8838 48.396 21.3699 51.2713 21.709C51.5295 21.7393 51.6599 21.6772 51.8504 21.5215C52.3019 19.9644 47.0682 16.9211 47.9441 15.376C51.5093 9.09248 63.1104 24.4142 64.7283 24.0586C64.8535 22.7942 59.8398 18.6402 59.908 16.9219C59.9957 15.0223 62.7169 14.7771 64.0154 15.5381C65.6644 16.5045 67.2728 17.9807 68.7156 19.2432C71.5833 21.7525 72.8064 22.8565 76.6951 22.8379C75.585 22.0455 70.5888 19.1265 73.3006 17.7012C74.4185 17.1137 76.389 19.1203 77.6024 19.6543C78.3582 18.876 80.4959 15.5878 78.0809 15.3789C76.7718 15.2658 75.6646 16.0041 74.7108 16.835C72.8413 13.8526 74.4004 11.3285 77.7908 11.0068ZM124.385 15.3633C123.908 15.5872 123.058 16.0092 122.656 16.334C118.618 18.6756 115.243 22.7683 110.861 24.5625C110.259 24.809 105.566 25.32 104.98 25.1826C104.208 24.3636 108.937 19.1122 109.879 18.3555L109.68 18.1924C108.193 19.5185 106.699 20.8319 105.346 22.2959C104.594 23.1101 103.958 24.1874 103.149 24.9346C102.635 25.4097 101.518 25.5195 100.836 25.6064C98.1314 25.9512 95.3956 25.9117 92.6941 25.5645C92.2763 25.5108 91.8922 25.4685 91.4744 25.3799C92.3654 24.6084 93.7021 23.8011 94.6961 23.1064C96.5324 21.8306 98.1882 20.3153 99.6229 18.6006C99.7497 18.4633 99.8727 18.322 99.991 18.1768C100.204 17.9101 100.377 17.7969 100.353 17.5391C99.9801 17.7814 99.605 18.2047 99.2977 18.5205C97.077 20.8948 95.2055 22.678 92.1883 24.0605C91.5138 24.3696 90.3499 24.9124 89.6336 24.8506C85.4936 24.4939 81.087 22.6712 77.3592 21.1826C79.5926 22.9035 83.1282 24.3692 85.8231 25.1445C86.7761 25.4186 88.5319 25.8239 89.3065 26.2813C90.0047 26.6932 91.1658 28.133 91.742 28.8115C93.3264 30.6759 94.7481 32.1134 96.8943 33.3428C96.2752 32.6426 95.3216 31.8774 94.6053 31.2393C93.2022 29.9891 91.6171 28.092 90.8787 26.3574C92.4555 26.6251 93.7551 26.8495 95.3758 26.9131C96.6712 26.964 98.5743 26.7892 99.7332 26.9678C100.203 27.0409 102.154 29.6301 102.716 30.2012C105.24 32.7627 107.922 34.5532 110.869 36.5293C111.338 36.8448 111.782 37.0474 112.288 37.2949C111.834 36.8676 111.456 36.5936 110.958 36.2256C107.65 33.9756 104.657 31.2116 102.479 27.835C102.269 27.5104 102.096 27.3172 101.994 26.9277L102.091 26.7744C103.454 26.1086 109.984 26.2533 111.797 25.8242C112.34 25.6955 112.995 25.7983 113.308 26.3516C114.995 29.3327 117.498 33.4188 120.407 35.2705L120.49 35.3223C117.938 32.2332 115.123 29.6577 113.846 25.6338C115.996 25.6088 119.078 25.8458 120.987 26.9795C121.715 27.4114 122.521 28.2245 123.147 28.8281C123.887 29.6182 125.608 30.9479 126.526 31.5635C125.862 30.7544 124.219 29.4899 123.342 28.7266C122.875 28.1994 122.604 27.8682 122.342 27.1875C124.811 27.6998 130.026 28.8455 132.321 29.7168C133.335 30.0248 135.812 30.9711 136.718 30.9551C136.6 30.7839 133.132 29.6196 132.701 29.5059C129.713 28.5042 126.703 27.5678 123.674 26.6973C122.33 26.3044 119.492 25.5747 118.307 25.0635C120.529 24.0576 122.623 23.1403 125.056 22.7178C126.488 22.3885 128.159 22.2362 129.508 21.7969C128.991 21.7517 125.54 22.2847 124.909 22.4521C123.311 22.7848 121.722 23.1628 120.145 23.5859C117.006 24.4345 115.641 24.783 112.318 24.6729C113.091 24.0927 113.881 23.5503 114.655 22.9639C117.348 20.9212 119.845 18.512 122.649 16.624C123.173 16.326 123.933 15.7636 124.385 15.3633ZM38.7049 15.5117C39.2424 16.0069 40.2008 16.6139 40.8338 17.041C43.1173 18.6498 45.2443 20.5222 47.4012 22.2988C48.4255 23.1425 49.663 23.9365 50.6356 24.79C49.3575 24.7225 47.7314 24.6939 46.4998 24.5723C45.7599 24.4992 43.919 23.9403 43.1063 23.7158C41.693 23.3155 40.2687 22.956 38.8348 22.6377C36.8228 22.1804 35.8053 22.1579 33.8436 21.9873C34.0019 22.134 34.9479 22.2419 35.2068 22.2441C36.0541 22.2516 37.82 22.9258 38.5525 22.8926C40.7464 23.4592 42.594 24.0833 44.6268 25.124C43.4147 25.632 40.513 26.3681 39.1473 26.7627C36.1373 27.6307 33.1487 28.5713 30.1844 29.584C29.5009 29.7355 27.0633 30.5869 26.5252 30.999C27.0545 30.926 29.8597 30.0003 30.5359 29.7881C30.9497 29.6091 32.9485 29.0534 33.4295 28.9336C35.6734 28.3743 38.3342 27.6034 40.6102 27.2871C40.2078 28.1996 39.9094 28.4928 39.2205 29.1689C38.8817 29.4455 37.0807 30.8589 37.0272 31.1504C37.5451 30.8319 38.987 29.7822 39.3709 29.3574C40.0676 28.7237 41.3453 27.515 42.0975 27.0479C43.913 25.9203 47.1865 25.6346 49.2635 25.6904C47.9937 29.6717 45.1803 32.2185 42.7127 35.3066C45.8385 33.1468 48.2706 29.0941 50.117 25.8252C51.5156 25.845 60.0283 26.4454 61.0106 26.793L61.0818 26.9688C60.9967 27.477 60.363 28.2846 60.0447 28.7246C58.4017 30.9569 56.4683 32.9603 54.2957 34.6816C53.2071 35.5497 52.0742 36.3258 50.9715 37.2148C51.9545 36.8105 53.1458 35.9588 54.0525 35.3604C57.9361 32.7974 60.2306 30.6085 63.1336 26.9834C65.344 26.9418 67.553 27.1423 69.7479 26.7949C70.5785 26.6634 71.4086 26.5356 72.2469 26.4619C71.3029 28.1992 70.2346 29.7133 68.7654 31.0527C68.0466 31.7081 66.9918 32.5457 66.3709 33.2451C69.6646 31.4649 71.1608 28.6797 73.7 26.3945C74.1659 25.9753 78.4621 24.8589 79.5486 24.4102L78.4559 23.873C75.2218 24.5695 73.7926 25.6345 70.617 24.0215C67.4631 22.4196 65.9059 20.8929 63.494 18.4229C63.3691 18.293 62.9946 17.8944 62.8025 17.7178H62.8074L62.7947 17.7109C62.7649 17.6838 62.7421 17.6599 62.7234 17.6465L62.699 17.6592L62.5535 17.582C62.5591 17.6256 62.5719 17.6718 62.5906 17.7197L62.577 17.7275L62.5936 17.7266C62.7278 18.0613 63.1424 18.4807 63.3533 18.7188C64.7585 20.3621 66.358 21.8286 68.117 23.0859C69.0819 23.7646 70.6272 24.7055 71.451 25.4355C68.6976 25.9418 62.5148 26.0973 59.9608 25.2119C59.4457 24.7106 58.4127 23.2838 57.8328 22.6436C56.4583 21.1258 55.1929 19.9357 53.6668 18.5781L52.5291 17.5625L52.5613 17.8857L53.4608 18.7617C55.156 20.4001 57.4986 23.0403 58.242 25.3213C57.3644 25.3235 52.6679 24.8963 52.035 24.6035C48.1053 22.7853 44.3378 19.0548 40.6805 16.5742C40.0645 16.1558 39.3827 15.8209 38.7049 15.5117ZM85.3699 21.3643C84.9369 21.5343 84.116 21.7983 83.9051 22.1797C84.051 22.2312 84.0219 22.2392 84.1697 22.2402C84.598 22.0181 85.1838 21.7489 85.5291 21.4326L85.4686 21.3584L85.3699 21.3643ZM100.359 17.5352L100.43 17.5918L100.462 17.5137L100.442 17.4824C100.414 17.4982 100.387 17.5172 100.359 17.5352ZM100.353 17.5391C100.355 17.5378 100.357 17.5364 100.359 17.5352L100.353 17.5303C100.354 17.5332 100.353 17.5362 100.353 17.5391ZM78.4031 12.0518C78.0205 12.1018 77.6533 12.1185 77.327 12.3213L77.2986 12.4521C77.4125 12.5581 77.5001 12.6645 77.6463 12.7041C77.9951 12.5491 78.4099 12.3945 78.6815 12.1367L78.6473 12.0508L78.4031 12.0518Z" fill="#6E1D0B"/>
<path d="M51.2616 16.429C51.6514 16.7625 52.1897 17.1963 52.5287 17.5623L52.5613 17.8859C52.0804 17.5011 51.6266 16.9173 51.2616 16.429Z" fill="#6E1D0B"/>
<path d="M86.4439 38.6168C85.9536 36.537 85.2123 34.4125 84.8031 32.2636C84.5522 30.9517 83.004 29.8848 83.1891 28.1478L83.3083 27.9786C84.0037 28.1431 85.5023 30.5707 85.9278 31.2601C86.3618 31.9648 86.7844 32.676 87.1975 33.3931L87.3921 33.2591C86.4133 31.4589 85.6159 30.0467 84.5265 28.2966C84.9004 28.426 85.2782 28.5535 85.6454 28.7016C86.9218 29.2163 90.3731 34.2613 90.956 35.663C91.1553 36.1426 91.3433 36.7987 91.1019 37.298C90.997 37.517 90.8081 37.6486 90.5773 37.7102C89.6157 37.9666 88.368 37.0949 87.5857 36.6384C87.9043 37.7589 89.2494 41.1325 86.6099 40.5619C84.97 40.2075 84.1859 38.0396 83.3922 36.7044C83.4733 38.7255 83.4848 41.9205 82.259 43.6504C81.3133 44.9854 80.2965 43.1843 80.0473 42.311C79.4933 40.3705 79.523 38.515 79.5839 36.5305C78.9875 37.7953 78.3929 39.1503 77.2793 40.0494C76.7617 40.4616 75.5738 41.1335 75.1087 40.3014C74.6726 39.5213 74.9583 38.5295 75.1736 37.7255C75.2756 37.3449 75.3884 36.9577 75.4981 36.5751C74.7366 37.1184 72.9948 38.1531 72.3242 37.6834C70.5908 36.4691 74.2619 32.3925 75.021 31.2202C75.6253 30.2871 76.2291 29.6687 76.916 28.9424C77.0588 28.7914 78.3107 28.3738 78.5008 28.308C77.465 29.988 76.6688 31.3961 75.7197 33.1377L75.986 33.1189C76.5861 32.1336 78.7506 28.3659 79.7261 27.9728L79.8844 28.0393C80.2338 29.0183 78.6964 31.0615 78.3389 32.0287C77.8503 33.3507 77.74 34.6815 77.393 36.0383C77.2655 36.5295 76.7558 37.8087 76.7735 38.1323C78.0498 35.9674 78.6864 33.1567 79.4291 30.7865C79.5642 30.3555 80.5284 30.2704 80.8969 30.4465C81.4413 31.3609 81.1453 40.2774 81.4853 42.2394C81.6885 40.3412 81.7314 31.5202 82.155 30.527C82.3811 30.3534 82.4383 30.2825 82.7474 30.3205C84.2374 30.5028 84.0056 32.6439 84.3853 33.6424C85.032 35.3389 85.6779 37.0114 86.4439 38.6168Z" fill="#6E1D0B"/>
</g>
<defs>
<filter id="filter0_d_523_1857" x="-2.09808e-05" y="-12.1114" width="163.278" height="79.3493" filterUnits="userSpaceOnUse" color-interpolation-filters="sRGB">
<feFlood flood-opacity="0" result="BackgroundImageFix"/>
<feColorMatrix in="SourceAlpha" type="matrix" values="0 0 0 0 0 0 0 0 0 0 0 0 0 0 0 0 0 0 127 0" result="hardAlpha"/>
<feOffset/>
<feGaussianBlur stdDeviation="11.5553"/>
<feComposite in2="hardAlpha" operator="out"/>
<feColorMatrix type="matrix" values="0 0 0 0 1 0 0 0 0 1 0 0 0 0 1 0 0 0 0.25 0"/>
<feBlend mode="normal" in2="BackgroundImageFix" result="effect1_dropShadow_523_1857"/>
<feBlend mode="normal" in="SourceGraphic" in2="effect1_dropShadow_523_1857" result="shape"/>
</filter>
</defs>
</svg>
